<svg xmlns="http://www.w3.org/2000/svg" xmlns:svg="http://www.w3.org/2000/svg" id="svg38" width="32" height="32" version="1.1"><defs id="defs42"><style id="current-color-scheme" type="text/css">.ColorScheme-Highlight{color:#3593e6}</style></defs><linearGradient id="a" x2="17" y1="-1" y2="18" gradientUnits="userSpaceOnUse"><stop id="stop2" offset="0" stop-color="#fff"/><stop id="stop4" offset="1" stop-color="#fff" stop-opacity="0"/></linearGradient><linearGradient id="b" x1="9" x2="30" y1="9" y2="30" gradientUnits="userSpaceOnUse"><stop id="stop7" offset="0"/><stop id="stop9" offset="1" stop-opacity="0"/></linearGradient><rect id="rect12" width="28" height="28" x="2" y="2" fill="#2d3033" rx="1"/><rect id="rect14" width="28" height="28" x="2" y="2" fill="url(#a)" opacity=".276" rx="1"/><path id="path16" fill="url(#b)" d="M23.414 10.586L22 12H6l-.729.729L11 18.455V20H6l-.729.729L14.545 30H29c.554 0 1-.446 1-1V17.172z" opacity=".4"/><g id="g24" transform="translate(-30)"><path id="path18" d="M36 19c-1.352-.02-1.352 2.02 0 2h6v-2z" class="ColorScheme-Highlight" style="fill:currentColor"/><circle id="circle20" cx="42" cy="20" r="2" fill="#fafafa"/><path id="path22" fill="#fcfcfc" d="M42 19v2h14c1.352.02 1.352-2.02 0-2z" opacity=".2"/></g><g id="g32" transform="translate(-30)"><path id="path26" d="M36 11c-1.352-.02-1.352 2.02 0 2h16v-2z" class="ColorScheme-Highlight" style="fill:currentColor"/><circle id="circle28" cx="52" cy="12" r="2" fill="#fafafa"/><path id="path30" fill="#fcfcfc" d="M52 11v2h4c1.352.02 1.352-2.02 0-2z" opacity=".2"/></g><path id="path34" d="M2 28v1c0 .554.446 1 1 1h26c.554 0 1-.446 1-1v-1c0 .554-.446 1-1 1H3c-.554 0-1-.446-1-1z" opacity=".3"/><path id="path36" fill="#fff" d="M2 4V3c0-.554.446-1 1-1h26c.554 0 1 .446 1 1v1c0-.554-.446-1-1-1H3c-.554 0-1 .446-1 1z" opacity=".3"/></svg>