<svg xmlns="http://www.w3.org/2000/svg" xmlns:svg="http://www.w3.org/2000/svg" xmlns:xlink="http://www.w3.org/1999/xlink" id="svg2" width="48" height="48" version="1.1" viewBox="0 0 48 48"><metadata id="metadata56"/><defs id="defs4"><linearGradient id="linearGradient4393"><stop style="stop-color:#000;stop-opacity:1" id="stop8" offset="0"/><stop style="stop-color:#000;stop-opacity:0" id="stop10" offset="1"/></linearGradient><linearGradient id="linearGradient4308" x2="0" y1="539.798" y2="527.798" gradientTransform="matrix(1.3333334,0,0,1.1666668,-509.76184,-595.76433)" gradientUnits="userSpaceOnUse" xlink:href="#linearGradient4298"/><linearGradient id="linearGradient4298"><stop style="stop-color:#42a603" id="stop4300"/><stop offset="1" style="stop-color:#78da06" id="stop4302"/></linearGradient><linearGradient id="linearGradient4256" x1="5" x2="21" y1="11" y2="27" gradientTransform="matrix(1.2499988,0,0,1.2857117,4.0000276,3.4286038)" gradientUnits="userSpaceOnUse" xlink:href="#linearGradient4393"/><linearGradient id="linearGradient4643-8" x2="0" y1="543.798" y2="502.655" gradientTransform="matrix(0.83333327,0,0,0.81666374,-316.47628,-404.50106)" gradientUnits="userSpaceOnUse" xlink:href="#linearGradient4303-6"/><linearGradient id="linearGradient4303-6"><stop style="stop-color:#c6cdd1" id="stop4305-7"/><stop offset="1" style="stop-color:#e0e5e7" id="stop4307-0"/></linearGradient><linearGradient id="linearGradient4183" x1="391.571" x2="406.571" y1="525.798" y2="540.798" gradientTransform="matrix(1.2499988,0,0,1.2857117,-476.71382,-659.73887)" gradientUnits="userSpaceOnUse" xlink:href="#linearGradient4393"/></defs><rect id="rect4641-5" style="fill:url(#linearGradient4643-8)" width="40" height="36" x="4" y="6" rx="0"/><path id="path4167" d="m 6,40 36,-26 2,2 -3e-5,25.999963 L 8,42 Z" style="opacity:.2;fill:url(#linearGradient4183);fill-rule:evenodd"/><rect id="rect4645-7-7" style="fill:#99a1a7" width="40" height="1" x="4" y="41"/><rect id="rect4647-8" style="fill:#566069" width="40" height="5" x="4" y="6"/><rect id="rect4649-8" style="fill:#3daee9" width="40" height="1" x="4" y="11"/><rect id="rect4653-5" style="fill:#fff" width="36" height="26" x="6" y="14"/><rect id="rect4661-1" style="fill:#eff0f1" width="3" height="3" x="39" y="7" rx="1.5"/><path style="opacity:.2;fill:url(#linearGradient4256);fill-rule:evenodd" id="path4242" d="m 31,27 -12,7 8,8 17,0 0,-2 z"/><path style="fill:url(#linearGradient4308);fill-rule:evenodd" id="path4237-9" d="m 19,20 0,14 12,-7 z"/></svg>